<svg width="183" height="42" viewBox="0 0 183 42" fill="none" xmlns="http://www.w3.org/2000/svg">
<path d="M44.1599 36.945V14.0709H36.1975L32.2163 7.53545L44.1599 1H48.8046C53.6619 8.17594 56.8878 7.92727 63.4024 1H68.0471L78.0001 7.53545L74.0189 14.0709H66.0565V36.945C57.9324 42.1038 53.1728 42.594 44.1599 36.945Z" stroke="#805AD5"/>
<path d="M12.9436 36.945V14.0709H4.9812L1 7.53545L12.9436 1H17.5883C22.4456 8.17594 25.6715 7.92727 32.1861 1H36.8308L46.7838 7.53545L42.8026 14.0709H34.8402V36.945C26.7161 42.1038 21.9565 42.594 12.9436 36.945Z" fill="#805AD5" stroke="#805AD5"/>
<path d="M98.025 30.3C96.7417 30.3 95.5583 30.0833 94.475 29.65C93.3917 29.2 92.45 28.5917 91.65 27.825C90.85 27.0417 90.225 26.1417 89.775 25.125C89.3417 24.0917 89.125 22.9917 89.125 21.825C89.125 20.5417 89.3417 19.3667 89.775 18.3C90.225 17.2167 90.85 16.275 91.65 15.475C92.45 14.6583 93.3917 14.0333 94.475 13.6C95.5583 13.15 96.7417 12.925 98.025 12.925C99.325 12.925 100.517 13.15 101.6 13.6C102.7 14.0333 103.65 14.65 104.45 15.45C105.25 16.2333 105.867 17.1417 106.3 18.175C106.75 19.2083 106.975 20.3167 106.975 21.5C106.975 22.75 106.75 23.9167 106.3 25C105.867 26.0667 105.25 27 104.45 27.8C103.65 28.5833 102.7 29.2 101.6 29.65C100.517 30.0833 99.325 30.3 98.025 30.3ZM98.025 29.625C99.2917 29.625 100.408 29.275 101.375 28.575C102.342 27.8583 103.1 26.8917 103.65 25.675C104.2 24.4417 104.475 23.0583 104.475 21.525C104.475 20.075 104.2 18.7583 103.65 17.575C103.1 16.375 102.342 15.425 101.375 14.725C100.408 14.0083 99.2917 13.65 98.025 13.65C96.7917 13.65 95.6917 14.0083 94.725 14.725C93.7583 15.425 93 16.3917 92.45 17.625C91.9 18.8583 91.625 20.2583 91.625 21.825C91.625 22.8917 91.7833 23.9 92.1 24.85C92.4167 25.7833 92.8583 26.6083 93.425 27.325C94.0083 28.0417 94.6917 28.6083 95.475 29.025C96.2583 29.425 97.1083 29.625 98.025 29.625ZM113.693 30.175C112.626 30.175 111.768 29.9167 111.118 29.4C110.468 28.8833 110.143 27.9833 110.143 26.7V21.125C110.143 20.7917 110.093 20.5667 109.993 20.45C109.909 20.3167 109.759 20.2083 109.543 20.125L108.468 19.7V19.45C108.884 19.45 109.284 19.4417 109.668 19.425C110.051 19.3917 110.426 19.35 110.793 19.3C111.176 19.25 111.543 19.2 111.893 19.15L112.118 19.3C112.034 19.5167 111.959 19.7583 111.893 20.025C111.843 20.275 111.818 20.5167 111.818 20.75V26.375C111.818 27.175 112.034 27.7917 112.468 28.225C112.918 28.6417 113.534 28.85 114.318 28.85C115.051 28.85 115.651 28.5833 116.118 28.05C116.601 27.5167 116.843 26.8833 116.843 26.15L117.518 28.625H116.893C116.509 28.7917 116.043 29.0167 115.493 29.3C114.943 29.5667 114.476 29.8167 114.093 30.05C113.926 30.1333 113.793 30.175 113.693 30.175ZM117.418 30.2L117.218 30.1L117.043 28.6L116.843 28.025V21.125C116.843 20.7917 116.793 20.5667 116.693 20.45C116.609 20.3167 116.459 20.2083 116.243 20.125L115.168 19.7V19.45C115.584 19.45 115.984 19.4417 116.368 19.425C116.751 19.3917 117.126 19.35 117.493 19.3C117.876 19.25 118.243 19.2 118.593 19.15L118.818 19.3C118.734 19.5167 118.659 19.7583 118.593 20.025C118.543 20.275 118.518 20.5167 118.518 20.75V28.175C118.518 28.6583 118.693 28.9917 119.043 29.175C119.409 29.3583 119.934 29.4333 120.618 29.4V29.875C120.084 29.8917 119.551 29.9333 119.018 30C118.484 30.0667 117.951 30.1333 117.418 30.2ZM122.127 30V29.625L123.177 29.35C123.427 29.2833 123.594 29.1917 123.677 29.075C123.777 28.9583 123.827 28.7833 123.827 28.55V20.05H122.152V19.35H123.827V17.55C123.827 16.55 123.994 15.65 124.327 14.85C124.677 14.05 125.194 13.4167 125.877 12.95C126.56 12.4667 127.394 12.225 128.377 12.225C129.16 12.225 129.81 12.3917 130.327 12.725C130.86 13.0583 131.127 13.475 131.127 13.975C131.127 14.2917 131.027 14.5583 130.827 14.775C130.644 14.975 130.385 15.075 130.052 15.075C129.685 15.075 129.402 14.9833 129.202 14.8C129.002 14.6167 128.902 14.3917 128.902 14.125C128.902 14.0583 128.91 14 128.927 13.95C128.944 13.9 128.96 13.85 128.977 13.8C128.994 13.75 129.01 13.7 129.027 13.65C129.044 13.6 129.052 13.5417 129.052 13.475C129.052 13.2917 128.969 13.15 128.802 13.05C128.652 12.9333 128.46 12.875 128.227 12.875C127.51 12.875 126.952 13.1 126.552 13.55C126.152 13.9833 125.877 14.5667 125.727 15.3C125.577 16.0167 125.502 16.8167 125.502 17.7V19.35H128.852L128.602 20.05H125.502V28.55C125.502 28.7833 125.544 28.9583 125.627 29.075C125.727 29.1917 125.902 29.2833 126.152 29.35L127.477 29.625V30H122.127ZM139.26 30.3C137.96 30.3 136.768 30.0833 135.685 29.65C134.601 29.2 133.66 28.5833 132.86 27.8C132.076 27 131.468 26.075 131.035 25.025C130.601 23.9583 130.385 22.8083 130.385 21.575C130.385 20.3083 130.635 19.15 131.135 18.1C131.635 17.05 132.301 16.1417 133.135 15.375C133.985 14.6083 134.943 14.0167 136.01 13.6C137.076 13.1833 138.185 12.975 139.335 12.975C140.135 12.975 140.826 13.0333 141.41 13.15C141.993 13.25 142.501 13.375 142.935 13.525C143.385 13.675 143.793 13.8083 144.16 13.925C144.526 14.025 144.893 14.075 145.26 14.075C145.46 14.075 145.651 14.0583 145.835 14.025C146.018 13.975 146.143 13.9417 146.21 13.925L146.26 13.975C146.226 14.0917 146.193 14.275 146.16 14.525C146.143 14.7583 146.135 14.9667 146.135 15.15C146.135 15.5333 146.16 15.95 146.21 16.4C146.26 16.85 146.318 17.25 146.385 17.6C146.451 17.95 146.51 18.1833 146.56 18.3H146.06C145.793 17.5833 145.343 16.8667 144.71 16.15C144.076 15.4333 143.301 14.8333 142.385 14.35C141.485 13.85 140.468 13.6 139.335 13.6C138.418 13.6 137.568 13.8167 136.785 14.25C136.001 14.6833 135.31 15.275 134.71 16.025C134.126 16.7583 133.668 17.6 133.335 18.55C133.001 19.5 132.835 20.4917 132.835 21.525C132.835 22.425 132.96 23.3583 133.21 24.325C133.46 25.275 133.843 26.1583 134.36 26.975C134.893 27.7917 135.56 28.45 136.36 28.95C137.176 29.45 138.143 29.7 139.26 29.7C140.026 29.7 140.818 29.55 141.635 29.25C142.468 28.95 143.143 28.55 143.66 28.05V24.65C143.66 24.1167 143.56 23.7667 143.36 23.6C143.176 23.4333 142.743 23.2917 142.06 23.175L140.535 22.9V22.45H148.935V22.9L147.635 23.125C146.951 23.2417 146.51 23.3833 146.31 23.55C146.126 23.7167 146.035 24.0667 146.035 24.6V29.375L145.91 29.45C145.793 29.4167 145.635 29.3917 145.435 29.375C145.251 29.3583 145.068 29.35 144.885 29.35C144.618 29.35 144.285 29.4 143.885 29.5C143.501 29.5833 143.076 29.6833 142.61 29.8C142.093 29.9167 141.551 30.025 140.985 30.125C140.418 30.2417 139.843 30.3 139.26 30.3ZM155.526 30.2C154.559 30.2 153.701 29.9583 152.951 29.475C152.201 28.9917 151.609 28.35 151.176 27.55C150.759 26.7333 150.551 25.825 150.551 24.825C150.551 23.7083 150.776 22.725 151.226 21.875C151.676 21.025 152.284 20.3583 153.051 19.875C153.834 19.3917 154.709 19.15 155.676 19.15C156.459 19.15 157.134 19.3417 157.701 19.725C158.284 20.0917 158.734 20.6 159.051 21.25C159.384 21.8833 159.551 22.6 159.551 23.4C159.551 23.5 159.517 23.5917 159.451 23.675C159.401 23.7583 159.301 23.8 159.151 23.8H151.926V23.225L157.051 23.075C157.367 23.075 157.526 22.925 157.526 22.625C157.526 21.8417 157.351 21.175 157.001 20.625C156.667 20.075 156.134 19.8 155.401 19.8C154.484 19.8 153.742 20.2167 153.176 21.05C152.609 21.8667 152.326 22.9417 152.326 24.275C152.326 25.2417 152.501 26.0583 152.851 26.725C153.201 27.3917 153.667 27.9 154.251 28.25C154.834 28.5833 155.476 28.75 156.176 28.75C157.226 28.75 158.284 28.3083 159.351 27.425L159.651 27.675C159.034 28.5583 158.351 29.2 157.601 29.6C156.867 30 156.176 30.2 155.526 30.2ZM174.931 30V29.625L175.981 29.35C176.231 29.2833 176.398 29.1917 176.481 29.075C176.581 28.9583 176.631 28.7833 176.631 28.55V22.95C176.631 22.15 176.423 21.5417 176.006 21.125C175.59 20.6917 174.99 20.475 174.206 20.475C173.44 20.475 172.815 20.75 172.331 21.3C171.848 21.8333 171.606 22.4667 171.606 23.2L170.931 20.725H171.556C171.94 20.5583 172.415 20.3333 172.981 20.05C173.548 19.7667 174.015 19.5083 174.381 19.275C174.515 19.1917 174.64 19.15 174.756 19.15C175.89 19.15 176.765 19.45 177.381 20.05C177.998 20.6333 178.306 21.4917 178.306 22.625V28.55C178.306 28.7833 178.348 28.9583 178.431 29.075C178.531 29.1917 178.706 29.2833 178.956 29.35L180.006 29.625V30H174.931ZM161.531 30V29.625L162.581 29.35C162.831 29.2833 162.998 29.1917 163.081 29.075C163.181 28.9583 163.231 28.7833 163.231 28.55V21.725C163.231 21.3917 163.19 21.1583 163.106 21.025C163.023 20.8917 162.865 20.7917 162.631 20.725L161.556 20.425V20.175C161.94 20.0917 162.315 20 162.681 19.9C163.065 19.8 163.431 19.6833 163.781 19.55C164.148 19.4167 164.498 19.2583 164.831 19.075L165.056 19.225C164.973 19.4417 164.898 19.6833 164.831 19.95C164.781 20.2 164.756 20.4417 164.756 20.675V20.925L164.906 21.3V28.55C164.906 28.7833 164.948 28.9583 165.031 29.075C165.131 29.1917 165.306 29.2833 165.556 29.35L166.606 29.625V30H161.531ZM168.231 30V29.625L169.281 29.35C169.531 29.2833 169.698 29.1917 169.781 29.075C169.881 28.9583 169.931 28.7833 169.931 28.55V22.95C169.931 22.15 169.723 21.5417 169.306 21.125C168.89 20.6917 168.29 20.475 167.506 20.475C166.74 20.475 166.115 20.75 165.631 21.3C165.148 21.8333 164.906 22.4667 164.906 23.2L164.231 20.725H164.856C165.24 20.5583 165.715 20.3333 166.281 20.05C166.848 19.7667 167.315 19.5083 167.681 19.275C167.815 19.1917 167.94 19.15 168.056 19.15C169.19 19.15 170.065 19.45 170.681 20.05C171.298 20.6333 171.606 21.4917 171.606 22.625V28.55C171.606 28.7833 171.648 28.9583 171.731 29.075C171.831 29.1917 172.006 29.2833 172.256 29.35L173.306 29.625V30H168.231Z" fill="#805AD5"/>
</svg>
