<svg width="92" height="19" viewBox="0 0 92 19" fill="none" xmlns="http://www.w3.org/2000/svg">
<path d="M9.025 18.3C7.74167 18.3 6.55833 18.0833 5.475 17.65C4.39167 17.2 3.45 16.5917 2.65 15.825C1.85 15.0417 1.225 14.1417 0.775 13.125C0.341667 12.0917 0.125 10.9917 0.125 9.825C0.125 8.54167 0.341667 7.36667 0.775 6.3C1.225 5.21667 1.85 4.275 2.65 3.475C3.45 2.65833 4.39167 2.03333 5.475 1.6C6.55833 1.15 7.74167 0.924999 9.025 0.924999C10.325 0.924999 11.5167 1.15 12.6 1.6C13.7 2.03333 14.65 2.65 15.45 3.45C16.25 4.23333 16.8667 5.14167 17.3 6.175C17.75 7.20833 17.975 8.31667 17.975 9.5C17.975 10.75 17.75 11.9167 17.3 13C16.8667 14.0667 16.25 15 15.45 15.8C14.65 16.5833 13.7 17.2 12.6 17.65C11.5167 18.0833 10.325 18.3 9.025 18.3ZM9.025 17.625C10.2917 17.625 11.4083 17.275 12.375 16.575C13.3417 15.8583 14.1 14.8917 14.65 13.675C15.2 12.4417 15.475 11.0583 15.475 9.525C15.475 8.075 15.2 6.75833 14.65 5.575C14.1 4.375 13.3417 3.425 12.375 2.725C11.4083 2.00833 10.2917 1.65 9.025 1.65C7.79167 1.65 6.69167 2.00833 5.725 2.725C4.75833 3.425 4 4.39167 3.45 5.625C2.9 6.85833 2.625 8.25833 2.625 9.825C2.625 10.8917 2.78333 11.9 3.1 12.85C3.41667 13.7833 3.85833 14.6083 4.425 15.325C5.00833 16.0417 5.69167 16.6083 6.475 17.025C7.25833 17.425 8.10833 17.625 9.025 17.625ZM24.6928 18.175C23.6261 18.175 22.7678 17.9167 22.1178 17.4C21.4678 16.8833 21.1428 15.9833 21.1428 14.7V9.125C21.1428 8.79167 21.0928 8.56667 20.9928 8.45C20.9094 8.31667 20.7594 8.20833 20.5428 8.125L19.4678 7.7V7.45C19.8844 7.45 20.2844 7.44167 20.6678 7.425C21.0511 7.39167 21.4261 7.35 21.7928 7.3C22.1761 7.25 22.5428 7.2 22.8928 7.15L23.1178 7.3C23.0344 7.51667 22.9594 7.75833 22.8928 8.025C22.8428 8.275 22.8178 8.51667 22.8178 8.75V14.375C22.8178 15.175 23.0344 15.7917 23.4678 16.225C23.9178 16.6417 24.5344 16.85 25.3178 16.85C26.0511 16.85 26.6511 16.5833 27.1178 16.05C27.6011 15.5167 27.8428 14.8833 27.8428 14.15L28.5178 16.625H27.8928C27.5094 16.7917 27.0428 17.0167 26.4928 17.3C25.9428 17.5667 25.4761 17.8167 25.0928 18.05C24.9261 18.1333 24.7928 18.175 24.6928 18.175ZM28.4178 18.2L28.2178 18.1L28.0428 16.6L27.8428 16.025V9.125C27.8428 8.79167 27.7928 8.56667 27.6928 8.45C27.6094 8.31667 27.4594 8.20833 27.2428 8.125L26.1678 7.7V7.45C26.5844 7.45 26.9844 7.44167 27.3678 7.425C27.7511 7.39167 28.1261 7.35 28.4928 7.3C28.8761 7.25 29.2428 7.2 29.5928 7.15L29.8178 7.3C29.7344 7.51667 29.6594 7.75833 29.5928 8.025C29.5428 8.275 29.5178 8.51667 29.5178 8.75V16.175C29.5178 16.6583 29.6928 16.9917 30.0428 17.175C30.4094 17.3583 30.9344 17.4333 31.6178 17.4V17.875C31.0844 17.8917 30.5511 17.9333 30.0178 18C29.4844 18.0667 28.9511 18.1333 28.4178 18.2ZM33.127 18V17.625L34.177 17.35C34.427 17.2833 34.5936 17.1917 34.677 17.075C34.777 16.9583 34.827 16.7833 34.827 16.55V8.05H33.152V7.35H34.827V5.55C34.827 4.55 34.9936 3.65 35.327 2.85C35.677 2.05 36.1936 1.41667 36.877 0.949999C37.5603 0.466666 38.3936 0.224999 39.377 0.224999C40.1603 0.224999 40.8103 0.391666 41.327 0.724999C41.8603 1.05833 42.127 1.475 42.127 1.975C42.127 2.29167 42.027 2.55833 41.827 2.775C41.6436 2.975 41.3853 3.075 41.052 3.075C40.6853 3.075 40.402 2.98333 40.202 2.8C40.002 2.61667 39.902 2.39167 39.902 2.125C39.902 2.05833 39.9103 2 39.927 1.95C39.9436 1.9 39.9603 1.85 39.977 1.8C39.9936 1.75 40.0103 1.7 40.027 1.65C40.0436 1.6 40.052 1.54167 40.052 1.475C40.052 1.29167 39.9686 1.15 39.802 1.05C39.652 0.933332 39.4603 0.874998 39.227 0.874998C38.5103 0.874998 37.952 1.1 37.552 1.55C37.152 1.98333 36.877 2.56667 36.727 3.3C36.577 4.01667 36.502 4.81667 36.502 5.7V7.35H39.852L39.602 8.05H36.502V16.55C36.502 16.7833 36.5436 16.9583 36.627 17.075C36.727 17.1917 36.902 17.2833 37.152 17.35L38.477 17.625V18H33.127ZM50.2598 18.3C48.9598 18.3 47.7681 18.0833 46.6848 17.65C45.6014 17.2 44.6598 16.5833 43.8598 15.8C43.0764 15 42.4681 14.075 42.0348 13.025C41.6014 11.9583 41.3848 10.8083 41.3848 9.575C41.3848 8.30833 41.6348 7.15 42.1348 6.1C42.6348 5.05 43.3014 4.14167 44.1348 3.375C44.9848 2.60833 45.9431 2.01667 47.0098 1.6C48.0764 1.18333 49.1848 0.974999 50.3348 0.974999C51.1348 0.974999 51.8264 1.03333 52.4098 1.15C52.9931 1.25 53.5014 1.375 53.9348 1.525C54.3848 1.675 54.7931 1.80833 55.1598 1.925C55.5264 2.025 55.8931 2.075 56.2598 2.075C56.4598 2.075 56.6514 2.05833 56.8348 2.025C57.0181 1.975 57.1431 1.94167 57.2098 1.925L57.2598 1.975C57.2264 2.09167 57.1931 2.275 57.1598 2.525C57.1431 2.75833 57.1348 2.96667 57.1348 3.15C57.1348 3.53333 57.1598 3.95 57.2098 4.4C57.2598 4.85 57.3181 5.25 57.3848 5.6C57.4514 5.95 57.5098 6.18333 57.5598 6.3H57.0598C56.7931 5.58333 56.3431 4.86667 55.7098 4.15C55.0764 3.43333 54.3014 2.83333 53.3848 2.35C52.4848 1.85 51.4681 1.6 50.3348 1.6C49.4181 1.6 48.5681 1.81667 47.7848 2.25C47.0014 2.68333 46.3098 3.275 45.7098 4.025C45.1264 4.75833 44.6681 5.6 44.3348 6.55C44.0014 7.5 43.8348 8.49167 43.8348 9.525C43.8348 10.425 43.9598 11.3583 44.2098 12.325C44.4598 13.275 44.8431 14.1583 45.3598 14.975C45.8931 15.7917 46.5598 16.45 47.3598 16.95C48.1764 17.45 49.1431 17.7 50.2598 17.7C51.0264 17.7 51.8181 17.55 52.6348 17.25C53.4681 16.95 54.1431 16.55 54.6598 16.05V12.65C54.6598 12.1167 54.5598 11.7667 54.3598 11.6C54.1764 11.4333 53.7431 11.2917 53.0598 11.175L51.5348 10.9V10.45H59.9348V10.9L58.6348 11.125C57.9514 11.2417 57.5098 11.3833 57.3098 11.55C57.1264 11.7167 57.0348 12.0667 57.0348 12.6V17.375L56.9098 17.45C56.7931 17.4167 56.6348 17.3917 56.4348 17.375C56.2514 17.3583 56.0681 17.35 55.8848 17.35C55.6181 17.35 55.2848 17.4 54.8848 17.5C54.5014 17.5833 54.0764 17.6833 53.6098 17.8C53.0931 17.9167 52.5514 18.025 51.9848 18.125C51.4181 18.2417 50.8431 18.3 50.2598 18.3ZM66.5258 18.2C65.5591 18.2 64.7008 17.9583 63.9508 17.475C63.2008 16.9917 62.6091 16.35 62.1758 15.55C61.7591 14.7333 61.5508 13.825 61.5508 12.825C61.5508 11.7083 61.7758 10.725 62.2258 9.875C62.6758 9.025 63.2841 8.35833 64.0508 7.875C64.8341 7.39167 65.7091 7.15 66.6758 7.15C67.4591 7.15 68.1341 7.34167 68.7008 7.725C69.2841 8.09167 69.7341 8.6 70.0508 9.25C70.3841 9.88333 70.5508 10.6 70.5508 11.4C70.5508 11.5 70.5174 11.5917 70.4508 11.675C70.4008 11.7583 70.3008 11.8 70.1508 11.8H62.9258V11.225L68.0508 11.075C68.3674 11.075 68.5258 10.925 68.5258 10.625C68.5258 9.84167 68.3508 9.175 68.0008 8.625C67.6674 8.075 67.1341 7.8 66.4008 7.8C65.4841 7.8 64.7424 8.21667 64.1758 9.05C63.6091 9.86667 63.3258 10.9417 63.3258 12.275C63.3258 13.2417 63.5008 14.0583 63.8508 14.725C64.2008 15.3917 64.6674 15.9 65.2508 16.25C65.8341 16.5833 66.4758 16.75 67.1758 16.75C68.2258 16.75 69.2841 16.3083 70.3508 15.425L70.6508 15.675C70.0341 16.5583 69.3508 17.2 68.6008 17.6C67.8674 18 67.1758 18.2 66.5258 18.2ZM85.9313 18V17.625L86.9813 17.35C87.2313 17.2833 87.3979 17.1917 87.4813 17.075C87.5813 16.9583 87.6313 16.7833 87.6313 16.55V10.95C87.6313 10.15 87.4229 9.54167 87.0063 9.125C86.5896 8.69167 85.9896 8.475 85.2063 8.475C84.4396 8.475 83.8146 8.75 83.3313 9.3C82.8479 9.83333 82.6063 10.4667 82.6063 11.2L81.9313 8.725H82.5563C82.9396 8.55833 83.4146 8.33333 83.9813 8.05C84.5479 7.76667 85.0146 7.50833 85.3813 7.275C85.5146 7.19167 85.6396 7.15 85.7563 7.15C86.8896 7.15 87.7646 7.45 88.3813 8.05C88.9979 8.63333 89.3063 9.49167 89.3063 10.625V16.55C89.3063 16.7833 89.3479 16.9583 89.4313 17.075C89.5313 17.1917 89.7063 17.2833 89.9563 17.35L91.0063 17.625V18H85.9313ZM72.5313 18V17.625L73.5813 17.35C73.8313 17.2833 73.9979 17.1917 74.0813 17.075C74.1813 16.9583 74.2313 16.7833 74.2313 16.55V9.725C74.2313 9.39167 74.1896 9.15833 74.1063 9.025C74.0229 8.89167 73.8646 8.79167 73.6313 8.725L72.5563 8.425V8.175C72.9396 8.09167 73.3146 8 73.6813 7.9C74.0646 7.8 74.4313 7.68333 74.7812 7.55C75.1479 7.41667 75.4979 7.25833 75.8313 7.075L76.0563 7.225C75.9729 7.44167 75.8979 7.68333 75.8313 7.95C75.7813 8.2 75.7563 8.44167 75.7563 8.675V8.925L75.9063 9.3V16.55C75.9063 16.7833 75.9479 16.9583 76.0313 17.075C76.1313 17.1917 76.3063 17.2833 76.5563 17.35L77.6063 17.625V18H72.5313ZM79.2313 18V17.625L80.2813 17.35C80.5313 17.2833 80.6979 17.1917 80.7813 17.075C80.8813 16.9583 80.9313 16.7833 80.9313 16.55V10.95C80.9313 10.15 80.7229 9.54167 80.3063 9.125C79.8896 8.69167 79.2896 8.475 78.5063 8.475C77.7396 8.475 77.1146 8.75 76.6313 9.3C76.1479 9.83333 75.9063 10.4667 75.9063 11.2L75.2313 8.725H75.8563C76.2396 8.55833 76.7146 8.33333 77.2813 8.05C77.8479 7.76667 78.3146 7.50833 78.6813 7.275C78.8146 7.19167 78.9396 7.15 79.0563 7.15C80.1896 7.15 81.0646 7.45 81.6813 8.05C82.2979 8.63333 82.6063 9.49167 82.6063 10.625V16.55C82.6063 16.7833 82.6479 16.9583 82.7313 17.075C82.8313 17.1917 83.0063 17.2833 83.2563 17.35L84.3063 17.625V18H79.2313Z" fill="#805AD5"/>
</svg>
